<?xml version="1.0" encoding="utf-8"?>
<!-- Generator: Adobe Illustrator 15.1.0, SVG Export Plug-In . SVG Version: 6.00 Build 0)  -->
<!DOCTYPE svg PUBLIC "-//W3C//DTD SVG 1.1//EN" "http://www.w3.org/Graphics/SVG/1.1/DTD/svg11.dtd">
<svg version="1.1" xmlns="http://www.w3.org/2000/svg" xmlns:xlink="http://www.w3.org/1999/xlink" x="0px" y="0px" width="1440px"
	 height="900px" viewBox="0 0 1440 900" enable-background="new 0 0 1440 900" xml:space="preserve">
<g id="Layer_2" display="none">
	<g display="inline">
		<circle fill="#FFFFFF" cx="712.815" cy="447.123" r="431.123"/>
		<path fill="#FBB040" d="M712.815,16c-0.029,0-0.071,0-0.1,0c-16.665,0.012-31.861,6.295-43.357,16.618
			c-9.695-5.611-20.857-8.747-32.477-8.746c-4.436,0-8.941,0.457-13.454,1.407c-0.027,0.006-0.042,0.009-0.069,0.015
			c-0.001,0-0.002,0-0.003,0c-0.027,0.006-0.061,0.013-0.088,0.019c-16.293,3.458-29.856,12.741-38.969,25.21
			c-6.432-2.084-13.2-3.174-20.052-3.174c-8.771,0-17.68,1.784-26.215,5.554c-0.125,0.055-0.218,0.097-0.342,0.152
			c-15.185,6.792-26.489,18.699-32.786,32.784c-2.254-0.236-4.524-0.355-6.795-0.355c-13.226,0.001-26.579,4.026-38.105,12.385
			c-0.004,0.003-0.009,0.006-0.013,0.009c-0.011,0.008-0.019,0.014-0.029,0.021c-0.001,0-0.001,0.001-0.002,0.001
			c-13.516,9.802-22.146,23.835-25.39,38.969c-15.391,1.595-30.273,8.659-41.474,21.035c0,0,0,0,0,0.001
			c-0.045,0.05-0.088,0.098-0.133,0.147c-11.134,12.356-16.651,27.817-16.709,43.243c-14.681,4.724-27.743,14.66-36.149,29.005
			c-0.062,0.105-0.137,0.234-0.198,0.34c-8.328,14.383-10.53,30.64-7.402,45.735c-13.413,7.706-24.138,20.195-29.349,36.047
			c-0.021,0.065-0.037,0.113-0.059,0.179c-5.167,15.823-3.931,32.207,2.287,46.335c-11.504,10.333-19.386,24.785-21.176,41.369
			c0,0.002,0,0.005,0,0.007c-0.002,0.014-0.003,0.026-0.004,0.041c0,0.002,0,0.005-0.001,0.007
			c-1.792,16.604,2.837,32.422,11.893,44.978c-9.125,12.431-13.887,28.133-12.292,44.68c0.014,0.142,0.029,0.296,0.043,0.438
			c1.688,16.524,9.428,30.97,20.805,41.361c-6.356,14.109-7.726,30.525-2.653,46.43c0.003,0.01,0.006,0.02,0.009,0.028
			c0.017,0.053,0.043,0.136,0.06,0.188c5.093,15.825,15.683,28.354,28.987,36.149c-3.265,15.103-1.185,31.415,7.066,45.894
			c0.013,0.023,0.027,0.047,0.041,0.07c0.003,0.007,0.007,0.014,0.011,0.02c8.278,14.5,21.294,24.601,35.986,29.467
			c-0.074,15.472,5.343,31.022,16.437,43.491c0.001,0.001,0.002,0.002,0.003,0.003c0.009,0.01,0.019,0.021,0.028,0.031
			c0.002,0.003,0.004,0.005,0.006,0.007c11.096,12.473,25.916,19.663,41.294,21.387c3.107,15.123,11.582,29.196,24.956,39.108
			c0.043,0.032,0.098,0.073,0.141,0.105c0.001,0,0.002,0.001,0.004,0.002c11.618,8.578,25.142,12.712,38.554,12.712
			c2.086,0,4.171-0.1,6.243-0.299c6.193,14.18,17.444,26.213,32.637,33.126c0.012,0.006,0.027,0.012,0.039,0.018
			c0.005,0.002,0.011,0.005,0.016,0.007c8.729,3.972,17.872,5.851,26.875,5.851c6.663,0,13.247-1.03,19.522-3.005
			c9.02,12.567,22.531,21.979,38.829,25.564c0.006,0.001,0.012,0.003,0.018,0.004c0.014,0.003,0.012,0.003,0.026,0.006
			c0.003,0,0.007,0.001,0.01,0.002c4.706,1.035,9.4,1.532,14.027,1.532c11.416,0,22.402-3.028,31.986-8.465
			c11.393,10.401,26.503,16.807,43.137,16.978c0.102,0.001,0.199,0.001,0.301,0.002c0.146,0.001,0.291,0.002,0.437,0.002
			c16.461,0,31.519-6.134,42.983-16.252c9.804,5.791,21.143,9.035,32.97,9.035c4.264,0,8.591-0.422,12.932-1.298
			c0.019-0.004,0.036-0.008,0.054-0.011c16.355-3.302,30.028-12.478,39.265-24.884c6.591,2.199,13.543,3.352,20.59,3.352
			c8.639,0,17.422-1.733,25.852-5.393c0.009-0.004,0.018-0.008,0.026-0.012c0.025-0.011,0.052-0.022,0.076-0.033
			c15.286-6.652,26.727-18.479,33.158-32.533c2.44,0.276,4.896,0.416,7.357,0.416c12.989,0,26.104-3.883,37.505-11.957
			c0.1-0.07,0.194-0.139,0.294-0.209c13.539-9.682,22.252-23.605,25.618-38.671c15.35-1.456,30.24-8.348,41.533-20.545
			c0.045-0.05,0.091-0.099,0.136-0.148c0.004-0.003,0.006-0.006,0.009-0.009c0.046-0.05,0.089-0.096,0.134-0.146
			c11.226-12.256,16.868-27.658,17.059-43.073c14.774-4.612,27.963-14.487,36.49-28.841c0.003-0.006,0.006-0.011,0.01-0.017
			c0.006-0.012,0.01-0.017,0.017-0.028c0-0.001,0.001-0.002,0.001-0.003c8.522-14.345,10.89-30.636,7.883-45.808
			c13.462-7.579,24.29-19.96,29.646-35.737c0.031-0.091,0.055-0.161,0.086-0.253c5.295-15.77,4.201-32.154-1.89-46.33
			c11.555-10.196,19.546-24.516,21.516-41.012c0.009-0.07,0.016-0.13,0.023-0.2v-0.001c0.009-0.07,0.015-0.125,0.023-0.195
			c1.885-16.529-2.608-32.325-11.526-44.917c9.231-12.35,14.125-28.008,12.675-44.566c-0.013-0.142-0.025-0.288-0.038-0.43
			c-1.545-16.539-9.16-31.058-20.446-41.548c6.475-14.042,7.99-30.434,3.07-46.37c-0.004-0.013-0.012-0.04-0.016-0.053
			c-0.004-0.012-0.008-0.024-0.012-0.036c-4.933-15.946-15.438-28.627-28.719-36.567c3.39-15.051,1.465-31.355-6.632-45.889
			c-0.02-0.036-0.048-0.085-0.067-0.121c-0.004-0.006-0.007-0.012-0.01-0.018c-0.033-0.059-0.063-0.113-0.097-0.172
			c-8.157-14.488-21.044-24.645-35.641-29.622c0.208-15.47-5.075-31.066-16.061-43.63c-0.001-0.001-0.001-0.001-0.002-0.002
			c-0.009-0.01-0.016-0.018-0.024-0.028c-0.003-0.004-0.007-0.007-0.01-0.011c-10.989-12.569-25.744-19.887-41.109-21.743
			c-2.973-15.133-11.313-29.266-24.575-39.292c-0.054-0.041-0.115-0.087-0.169-0.127c-0.006-0.004-0.011-0.008-0.016-0.012
			c-11.704-8.799-25.412-13.048-39.007-13.047c-1.898,0-3.795,0.083-5.683,0.248c-6.05-14.19-17.141-26.287-32.201-33.343
			c-0.1-0.046-0.213-0.099-0.312-0.145c-8.841-4.095-18.131-6.036-27.276-6.036c-6.469,0-12.867,0.971-18.981,2.836
			c-8.909-12.646-22.337-22.174-38.603-25.901c-0.004-0.001-0.008-0.002-0.012-0.003c-0.068-0.016-0.149-0.034-0.218-0.05
			c-4.828-1.093-9.65-1.617-14.402-1.617c-11.215,0-22.02,2.921-31.492,8.186c-11.289-10.484-26.325-17.015-42.93-17.343
			c-0.13-0.002-0.278-0.005-0.408-0.007c-0.32-0.005-0.637-0.007-0.955-0.007c-0.869,0-1.736,0.018-2.597,0.051
			c-1.227-0.069-2.465-0.104-3.709-0.104C712.815,16,712.815,16,712.815,16L712.815,16z M636.704,153.907
			c4.446,0,8.961-0.459,13.485-1.414l0.038-0.007c11.579-2.443,21.785-7.83,29.996-15.21c9.573,5.548,20.694,8.724,32.554,8.724l0,0
			h0.039c0.879,0,1.753-0.018,2.624-0.052c0.868,0.049,1.741,0.081,2.618,0.096l0.039,0.001c0.377,0.006,0.75,0.009,1.126,0.009
			c11.425,0,22.185-2.959,31.535-8.163c8.078,7.511,18.181,13.066,29.705,15.707l0.037,0.008c4.887,1.12,9.77,1.657,14.579,1.657
			c6.492,0,12.845-0.978,18.885-2.824c6.326,8.99,15.021,16.496,25.702,21.468l0.035,0.016c8.875,4.131,18.205,6.087,27.39,6.087
			c1.899,0,3.793-0.084,5.675-0.249c4.32,10.149,11.284,19.333,20.734,26.438l0.031,0.023c9.473,7.122,20.257,11.262,31.234,12.583
			c2.126,10.85,7.052,21.304,14.853,30.227l0.025,0.029c7.792,8.913,17.479,15.186,27.935,18.743
			c-0.153,11.035,2.504,22.26,8.28,32.584l0.019,0.034c5.758,10.291,13.897,18.409,23.345,24.05
			c-2.423,10.727-2.152,22.214,1.33,33.474l0.012,0.037c3.485,11.268,9.752,20.904,17.817,28.392
			c-4.618,10-6.754,21.308-5.688,33.065l0.003,0.038c1.073,11.84,5.257,22.651,11.673,31.697
			c-6.642,8.874-11.101,19.568-12.478,31.37l-0.005,0.038c-1.367,11.717,0.471,23.068,4.822,33.178
			c-8.251,7.272-14.764,16.738-18.541,27.904l-0.012,0.036c-3.778,11.169-4.347,22.649-2.203,33.439
			c-9.595,5.395-17.948,13.302-23.974,23.443l-0.02,0.033c-6.045,10.176-8.993,21.332-9.123,32.373
			c-10.546,3.287-20.399,9.31-28.42,18.02l-0.026,0.028c-8.028,8.718-13.222,19.039-15.626,29.831
			c-11.004,1.037-21.893,4.898-31.543,11.771l-0.031,0.022c-9.626,6.854-16.822,15.85-21.404,25.877
			c-2.425-0.275-4.875-0.417-7.335-0.416c-8.639,0-17.424,1.733-25.854,5.393l-0.034,0.016
			c-10.808,4.691-19.693,11.965-26.252,20.787c-6.507-2.176-13.413-3.339-20.493-3.338c-4.262,0-8.593,0.422-12.932,1.298
			l-0.037,0.008c-11.606,2.343-21.863,7.645-30.142,14.959c-9.529-5.638-20.627-8.911-32.495-9.012h-0.039
			c-0.188-0.002-0.373-0.003-0.561-0.003c-11.643,0.001-22.582,3.067-32.044,8.442c-8.146-7.446-18.298-12.914-29.851-15.456
			l-0.038-0.008c-4.706-1.035-9.4-1.532-14.028-1.532c-6.688,0.001-13.228,1.039-19.425,2.992
			c-6.404-8.935-15.165-16.364-25.889-21.242l-0.035-0.016c-8.729-3.972-17.874-5.852-26.877-5.851c-2.086,0-4.167,0.101-6.23,0.3
			c-4.408-10.108-11.451-19.23-20.96-26.251l-0.031-0.023c-9.535-7.039-20.352-11.087-31.34-12.312
			c-2.22-10.831-7.235-21.241-15.113-30.096l-0.026-0.029c-7.871-8.847-17.611-15.035-28.099-18.502
			c0.059-11.038-2.697-22.24-8.563-32.516l-0.019-0.033c-5.848-10.243-14.06-18.291-23.557-23.85
			c2.33-10.749,1.959-22.233-1.623-33.464l-0.012-0.037c-3.583-11.234-9.934-20.814-18.062-28.23
			c4.529-10.037,6.565-21.361,5.399-33.106l-0.003-0.039c-1.175-11.828-5.451-22.602-11.942-31.59
			c6.566-8.933,10.933-19.665,12.208-31.481l0.004-0.038c1.266-11.731-0.672-23.068-5.112-33.142
			c8.188-7.344,14.62-16.868,18.299-28.067l0.012-0.036c3.68-11.201,4.149-22.684,1.911-33.454
			c9.547-5.477,17.829-13.455,23.766-23.648l0.019-0.033c5.955-10.227,8.806-21.407,8.841-32.447
			c10.515-3.378,20.316-9.485,28.26-18.263l0.026-0.028c7.953-8.787,13.057-19.154,15.369-29.966
			c10.994-1.133,21.852-5.088,31.442-12.044l0.031-0.022c9.568-6.938,16.687-15.998,21.181-26.067
			c2.245,0.236,4.506,0.356,6.778,0.356c8.822,0,17.789-1.807,26.37-5.622l0.035-0.015c10.766-4.786,19.588-12.138,26.069-21.017
			C623.1,152.808,629.822,153.907,636.704,153.907L636.704,153.907z"/>
	</g>
</g>
<g id="Layer_3" display="none">
	<g display="inline">
		<path fill="#DFBA67" d="M712.814,88.861c-198.022,0-358.26,160.238-358.26,358.261h358.26V88.861z"/>
		<path fill="#670053" d="M1071.075,447.122c0-198.023-160.237-358.261-358.261-358.261v358.261H1071.075z"/>
		<path fill="#A4570C" d="M712.814,447.122v358.261c198.023,0,358.261-160.238,358.261-358.261H712.814z"/>
		<path fill="#B3D335" d="M354.554,447.122c0,198.022,160.238,358.261,358.26,358.261V447.122H354.554z"/>
	</g>
</g>
<g id="Layer_4" display="none">
	<path display="inline" fill="#54003E" d="M802.561,206.494c3.681-3.026,6.028-7.613,6.028-12.749
		c0-7.754-5.356-14.241-12.566-16.008c1.314-2.369,2.068-5.091,2.068-7.991c0-9.112-7.388-16.5-16.5-16.5
		c-5.88,0-11.028,3.085-13.95,7.716c-0.833-0.129-1.681-0.217-2.55-0.217c-9.112,0-16.5,7.387-16.5,16.5
		c-9.113,0-16.5,7.387-16.5,16.5c0,8.043,5.758,14.733,13.375,16.195c-1.813,2.649-2.877,5.851-2.877,9.304
		c0,9.112,7.388,16.5,16.5,16.5c0.869,0,1.716-0.087,2.549-0.217c2.922,4.631,8.07,7.717,13.951,7.717s11.029-3.086,13.951-7.717
		c0.833,0.129,1.68,0.217,2.549,0.217c9.112,0,16.5-7.387,16.5-16.5C808.589,214.107,806.241,209.521,802.561,206.494z"/>
	<path display="inline" fill="#741472" d="M879.059,267.862c3.682-3.026,6.029-7.613,6.029-12.749
		c0-7.754-5.357-14.241-12.566-16.008c1.314-2.369,2.068-5.091,2.068-7.991c0-9.112-7.389-16.5-16.5-16.5
		c-5.881,0-11.029,3.085-13.951,7.716c-0.832-0.129-1.68-0.217-2.549-0.217c-9.113,0-16.5,7.387-16.5,16.5
		c-9.113,0-16.5,7.387-16.5,16.5c0,8.043,5.758,14.733,13.375,16.195c-1.813,2.649-2.877,5.851-2.877,9.304
		c0,9.112,7.387,16.5,16.5,16.5c0.869,0,1.715-0.087,2.549-0.217c2.922,4.631,8.07,7.717,13.951,7.717s11.029-3.086,13.951-7.717
		c0.832,0.129,1.68,0.217,2.549,0.217c9.111,0,16.5-7.387,16.5-16.5C885.088,275.476,882.74,270.889,879.059,267.862z"/>
	<path display="inline" fill="#741472" d="M917.309,402.858c3.681-3.026,6.028-7.613,6.028-12.749
		c0-7.754-5.356-14.241-12.566-16.008c1.314-2.369,2.068-5.091,2.068-7.991c0-9.112-7.388-16.5-16.5-16.5
		c-5.88,0-11.028,3.085-13.95,7.716c-0.833-0.129-1.681-0.217-2.55-0.217c-9.112,0-16.5,7.387-16.5,16.5
		c-9.113,0-16.5,7.387-16.5,16.5c0,8.043,5.758,14.733,13.375,16.195c-1.813,2.649-2.877,5.851-2.877,9.304
		c0,9.112,7.388,16.5,16.5,16.5c0.869,0,1.716-0.087,2.549-0.217c2.922,4.631,8.07,7.717,13.951,7.717s11.029-3.086,13.951-7.717
		c0.833,0.129,1.68,0.217,2.549,0.217c9.112,0,16.5-7.387,16.5-16.5C923.337,410.471,920.989,405.884,917.309,402.858z"/>
	<path display="inline" fill="#54003E" d="M795.813,336.752c3.68-3.026,6.027-7.613,6.027-12.749
		c0-7.754-5.355-14.241-12.566-16.008c1.314-2.369,2.068-5.091,2.068-7.991c0-9.112-7.387-16.5-16.5-16.5
		c-5.879,0-11.027,3.085-13.949,7.716c-0.834-0.129-1.682-0.217-2.551-0.217c-9.111,0-16.5,7.387-16.5,16.5
		c-9.113,0-16.5,7.387-16.5,16.5c0,8.043,5.758,14.733,13.375,16.195c-1.813,2.649-2.877,5.851-2.877,9.304
		c0,9.112,7.389,16.5,16.5,16.5c0.869,0,1.717-0.087,2.549-0.217c2.922,4.631,8.07,7.717,13.951,7.717s11.029-3.086,13.951-7.717
		c0.834,0.129,1.68,0.217,2.549,0.217c9.113,0,16.5-7.387,16.5-16.5C801.84,344.366,799.492,339.779,795.813,336.752z"/>
	<path display="inline" fill="#54003E" d="M1004.046,312.861c3.681-3.026,6.028-7.613,6.028-12.749
		c0-7.754-5.356-14.241-12.566-16.008c1.314-2.369,2.068-5.091,2.068-7.991c0-9.112-7.388-16.5-16.5-16.5
		c-5.88,0-11.028,3.085-13.95,7.716c-0.833-0.129-1.681-0.217-2.55-0.217c-9.112,0-16.5,7.387-16.5,16.5
		c-9.113,0-16.5,7.387-16.5,16.5c0,8.043,5.758,14.733,13.375,16.195c-1.813,2.649-2.877,5.851-2.877,9.304
		c0,9.112,7.388,16.5,16.5,16.5c0.869,0,1.716-0.087,2.549-0.217c2.922,4.631,8.07,7.717,13.951,7.717s11.029-3.086,13.951-7.717
		c0.833,0.129,1.68,0.217,2.549,0.217c9.112,0,16.5-7.387,16.5-16.5C1010.074,320.475,1007.727,315.888,1004.046,312.861z"/>
	<path display="inline" fill="#5E005B" d="M816.838,376.652c-3.025-3.681-7.612-6.028-12.749-6.028
		c-7.754,0-14.241,5.356-16.008,12.566c-2.368-1.314-5.091-2.068-7.991-2.068c-9.112,0-16.499,7.388-16.499,16.5
		c0,5.88,3.085,11.028,7.716,13.95c-0.129,0.833-0.217,1.681-0.217,2.55c0,9.112,7.388,16.5,16.5,16.5
		c0,9.113,7.387,16.5,16.499,16.5c8.043,0,14.733-5.758,16.195-13.375c2.649,1.813,5.851,2.877,9.304,2.877
		c9.112,0,16.499-7.388,16.499-16.5c0-0.869-0.087-1.716-0.217-2.549c4.631-2.922,7.717-8.07,7.717-13.951
		s-3.086-11.029-7.717-13.951c0.13-0.833,0.217-1.68,0.217-2.549c0-9.112-7.387-16.5-16.499-16.5
		C824.451,370.624,819.864,372.972,816.838,376.652z"/>
	<path display="inline" fill="#5E005B" d="M900.194,159.274c-3.025-3.68-7.613-6.027-12.749-6.027
		c-7.754,0-14.241,5.355-16.008,12.566c-2.369-1.314-5.091-2.068-7.991-2.068c-9.112,0-16.5,7.387-16.5,16.5
		c0,5.879,3.086,11.027,7.717,13.949c-0.13,0.834-0.217,1.682-0.217,2.551c0,9.111,7.387,16.5,16.499,16.5
		c0,9.113,7.388,16.5,16.5,16.5c8.043,0,14.733-5.758,16.194-13.375c2.65,1.813,5.852,2.877,9.305,2.877
		c9.111,0,16.499-7.389,16.499-16.5c0-0.869-0.087-1.717-0.217-2.549c4.631-2.922,7.717-8.07,7.717-13.951
		s-3.086-11.029-7.717-13.951c0.13-0.834,0.217-1.68,0.217-2.549c0-9.113-7.388-16.5-16.499-16.5
		C907.808,153.247,903.221,155.594,900.194,159.274z"/>
	<path display="inline" fill="#5E005B" d="M965.077,377.532c-3.026-3.682-7.613-6.029-12.749-6.029
		c-7.754,0-14.241,5.357-16.008,12.566c-2.369-1.314-5.091-2.068-7.991-2.068c-9.112,0-16.5,7.389-16.5,16.5
		c0,5.881,3.086,11.029,7.717,13.951c-0.13,0.832-0.217,1.68-0.217,2.549c0,9.113,7.387,16.5,16.499,16.5
		c0,9.113,7.388,16.5,16.5,16.5c8.043,0,14.733-5.758,16.194-13.375c2.649,1.813,5.852,2.877,9.304,2.877
		c9.112,0,16.5-7.387,16.5-16.5c0-0.869-0.088-1.715-0.217-2.549c4.631-2.922,7.717-8.07,7.717-13.951s-3.086-11.029-7.717-13.951
		c0.129-0.832,0.217-1.68,0.217-2.549c0-9.111-7.388-16.5-16.5-16.5C972.69,371.502,968.104,373.85,965.077,377.532z"/>
	<path display="inline" fill="#5E005B" d="M766.063,227.392c-3.026-3.68-7.613-6.027-12.749-6.027
		c-7.754,0-14.241,5.355-16.008,12.566c-2.369-1.314-5.091-2.068-7.991-2.068c-9.112,0-16.5,7.387-16.5,16.5
		c0,5.879,3.086,11.027,7.717,13.949c-0.13,0.834-0.217,1.682-0.217,2.551c0,9.111,7.387,16.5,16.499,16.5
		c0,9.113,7.388,16.5,16.5,16.5c8.043,0,14.733-5.758,16.194-13.375c2.649,1.813,5.852,2.877,9.304,2.877
		c9.112,0,16.5-7.389,16.5-16.5c0-0.869-0.088-1.717-0.217-2.549c4.631-2.922,7.717-8.07,7.717-13.951s-3.086-11.029-7.717-13.951
		c0.129-0.834,0.217-1.68,0.217-2.549c0-9.113-7.388-16.5-16.5-16.5C773.676,221.364,769.089,223.712,766.063,227.392z"/>
	<path display="inline" fill="#5C1169" d="M808.841,320.254c-3.682,3.025-6.029,7.613-6.029,12.748
		c0,7.754,5.357,14.242,12.566,16.008c-1.314,2.369-2.068,5.092-2.068,7.992c0,9.111,7.389,16.5,16.5,16.5
		c5.881,0,11.029-3.086,13.951-7.717c0.832,0.129,1.68,0.217,2.549,0.217c9.113,0,16.5-7.387,16.5-16.5
		c9.113,0,16.5-7.387,16.5-16.5c0-8.043-5.758-14.732-13.375-16.193c1.813-2.65,2.877-5.852,2.877-9.305
		c0-9.111-7.387-16.5-16.5-16.5c-0.869,0-1.715,0.088-2.549,0.217c-2.922-4.631-8.07-7.717-13.951-7.717s-11.029,3.086-13.951,7.717
		c-0.832-0.129-1.68-0.217-2.549-0.217c-9.111,0-16.5,7.389-16.5,16.5C802.812,312.641,805.159,317.227,808.841,320.254z"/>
	<path display="inline" fill="#5C1169" d="M891.117,275.255c-3.682,3.026-6.029,7.613-6.029,12.749
		c0,7.754,5.357,14.241,12.566,16.008c-1.314,2.369-2.068,5.091-2.068,7.991c0,9.112,7.389,16.5,16.5,16.5
		c5.881,0,11.029-3.086,13.951-7.717c0.832,0.13,1.68,0.217,2.549,0.217c9.113,0,16.5-7.387,16.5-16.499
		c9.113,0,16.5-7.388,16.5-16.5c0-8.043-5.758-14.733-13.375-16.194c1.813-2.649,2.877-5.852,2.877-9.304
		c0-9.112-7.387-16.5-16.5-16.5c-0.869,0-1.715,0.088-2.549,0.217c-2.922-4.631-8.07-7.717-13.951-7.717s-11.029,3.086-13.951,7.717
		c-0.832-0.129-1.68-0.217-2.549-0.217c-9.111,0-16.5,7.388-16.5,16.5C885.088,267.642,887.436,272.229,891.117,275.255z"/>
	<path display="inline" fill="#5C1169" d="M991.607,365.253c-3.682,3.025-6.029,7.613-6.029,12.748
		c0,7.754,5.357,14.242,12.566,16.008c-1.314,2.369-2.068,5.092-2.068,7.992c0,9.111,7.389,16.5,16.5,16.5
		c5.881,0,11.029-3.086,13.951-7.717c0.832,0.129,1.68,0.217,2.549,0.217c9.113,0,16.5-7.387,16.5-16.5
		c9.113,0,16.5-7.387,16.5-16.5c0-8.043-5.758-14.732-13.375-16.193c1.813-2.65,2.877-5.852,2.877-9.305
		c0-9.111-7.387-16.5-16.5-16.5c-0.869,0-1.715,0.088-2.549,0.217c-2.922-4.631-8.07-7.717-13.951-7.717s-11.029,3.086-13.951,7.717
		c-0.832-0.129-1.68-0.217-2.549-0.217c-9.111,0-16.5,7.389-16.5,16.5C985.578,357.64,987.926,362.226,991.607,365.253z"/>
	<path display="inline" fill="#5C1169" d="M718.843,127.611c-3.682,3.025-6.029,7.613-6.029,12.748
		c0,7.754,5.357,14.242,12.566,16.008c-1.314,2.369-2.068,5.092-2.068,7.992c0,9.111,7.389,16.5,16.5,16.5
		c5.881,0,11.029-3.086,13.951-7.717c0.832,0.129,1.68,0.217,2.549,0.217c9.113,0,16.501-7.387,16.501-16.5
		c9.113,0,16.5-7.387,16.5-16.5c0-8.043-5.758-14.732-13.375-16.193c1.813-2.65,2.877-5.852,2.877-9.305
		c0-9.111-7.387-16.5-16.501-16.5c-0.869,0-1.715,0.088-2.549,0.217c-2.922-4.631-8.07-7.717-13.951-7.717
		s-11.029,3.086-13.951,7.717c-0.832-0.129-1.68-0.217-2.549-0.217c-9.111,0-16.5,7.389-16.5,16.5
		C712.813,119.998,715.161,124.584,718.843,127.611z"/>
	<path display="inline" fill="#5C1169" d="M718.844,386.36c-3.682,3.025-6.029,7.613-6.029,12.748
		c0,7.754,5.357,14.242,12.566,16.008c-1.314,2.369-2.068,5.092-2.068,7.992c0,9.111,7.389,16.5,16.5,16.5
		c5.881,0,11.029-3.086,13.951-7.717c0.832,0.129,1.68,0.217,2.549,0.217c9.113,0,16.5-7.387,16.5-16.5
		c9.113,0,16.5-7.387,16.5-16.5c0-8.043-5.758-14.732-13.375-16.193c1.813-2.65,2.877-5.852,2.877-9.305
		c0-9.111-7.387-16.5-16.5-16.5c-0.869,0-1.715,0.088-2.549,0.217c-2.922-4.631-8.07-7.717-13.951-7.717s-11.029,3.086-13.951,7.717
		c-0.832-0.129-1.68-0.217-2.549-0.217c-9.111,0-16.5,7.389-16.5,16.5C712.814,378.747,715.162,383.333,718.844,386.36z"/>
	<path display="inline" fill="#5E005B" d="M1059.049,410.858c3.68-3.025,6.027-7.613,6.027-12.748
		c0-7.754-5.355-14.242-12.566-16.008c1.314-2.369,2.068-5.092,2.068-7.992c0-9.111-7.387-16.5-16.5-16.5
		c-5.879,0-11.027,3.086-13.949,7.717c-0.834-0.129-1.682-0.217-2.551-0.217c-9.111,0-16.5,7.387-16.5,16.5
		c-9.113,0-16.5,7.387-16.5,16.5c0,8.043,5.758,14.732,13.375,16.193c-1.813,2.65-2.877,5.852-2.877,9.305
		c0,9.111,7.389,16.5,16.5,16.5c0.869,0,1.717-0.088,2.549-0.217c2.922,4.631,8.07,7.717,13.951,7.717s11.029-3.086,13.951-7.717
		c0.834,0.129,1.68,0.217,2.549,0.217c9.113,0,16.5-7.389,16.5-16.5C1065.076,418.471,1062.729,413.885,1059.049,410.858z"/>
	<path display="inline" fill="#5E005B" d="M948.828,206.284c-3.025-3.68-7.613-6.027-12.748-6.027
		c-7.754,0-14.242,5.355-16.008,12.566c-2.369-1.314-5.092-2.068-7.992-2.068c-9.111,0-16.5,7.387-16.5,16.5
		c0,5.879,3.086,11.027,7.717,13.949c-0.129,0.834-0.217,1.682-0.217,2.551c0,9.111,7.387,16.5,16.5,16.5
		c0,9.113,7.387,16.5,16.5,16.5c8.043,0,14.732-5.758,16.193-13.375c2.65,1.813,5.852,2.877,9.305,2.877
		c9.111,0,16.5-7.389,16.5-16.5c0-0.869-0.088-1.717-0.217-2.549c4.631-2.922,7.717-8.07,7.717-13.951s-3.086-11.029-7.717-13.951
		c0.129-0.834,0.217-1.68,0.217-2.549c0-9.113-7.389-16.5-16.5-16.5C956.441,200.257,951.855,202.604,948.828,206.284z"/>
	<path display="inline" fill="#80005C" d="M829.773,120.342c4.46-1.674,9.607-1.413,14.055,1.155
		c6.715,3.877,9.655,11.758,7.58,18.887c2.709,0.046,5.443,0.754,7.955,2.204c7.892,4.556,10.596,14.647,6.039,22.54
		c-2.939,5.091-8.187,8.007-13.657,8.222c-0.305,0.788-0.653,1.565-1.088,2.318c-4.556,7.891-14.647,10.596-22.538,6.04
		c-4.557,7.893-14.648,10.596-22.54,6.04c-6.965-4.021-9.881-12.353-7.337-19.68c-3.202,0.245-6.506-0.435-9.497-2.161
		c-7.891-4.556-10.594-14.648-6.038-22.539c0.435-0.753,0.934-1.443,1.462-2.099c-2.55-4.846-2.647-10.848,0.293-15.94
		s8.187-8.009,13.658-8.224c0.305-0.787,0.652-1.563,1.087-2.316c4.557-7.892,14.647-10.595,22.538-6.04
		C826.194,111.315,828.992,115.642,829.773,120.342z"/>
	<path display="inline" fill="#5C1169" d="M797.147,192.008c-3.682,3.025-6.029,7.613-6.029,12.748
		c0,7.754,5.357,14.242,12.566,16.008c-1.314,2.369-2.068,5.092-2.068,7.992c0,9.111,7.389,16.5,16.5,16.5
		c5.881,0,11.029-3.086,13.951-7.717c0.832,0.129,1.68,0.217,2.549,0.217c9.113,0,16.5-7.387,16.5-16.5
		c9.113,0,16.5-7.387,16.5-16.5c0-8.043-5.758-14.732-13.375-16.193c1.813-2.65,2.877-5.852,2.877-9.305
		c0-9.111-7.387-16.5-16.5-16.5c-0.869,0-1.715,0.088-2.549,0.217c-2.922-4.631-8.07-7.717-13.951-7.717s-11.029,3.086-13.951,7.717
		c-0.832-0.129-1.68-0.217-2.549-0.217c-9.111,0-16.5,7.389-16.5,16.5C791.118,184.395,793.466,188.98,797.147,192.008z"/>
	<path display="inline" fill="#5E005B" d="M920.079,317.388c-3.025-3.68-7.613-6.027-12.749-6.027
		c-7.754,0-14.241,5.355-16.008,12.566c-2.369-1.314-5.091-2.068-7.991-2.068c-9.112,0-16.5,7.387-16.5,16.5
		c0,5.879,3.086,11.027,7.717,13.949c-0.13,0.834-0.217,1.682-0.217,2.551c0,9.111,7.387,16.5,16.499,16.5
		c0,9.113,7.388,16.5,16.5,16.5c8.043,0,14.733-5.758,16.194-13.375c2.65,1.813,5.852,2.877,9.305,2.877
		c9.111,0,16.499-7.389,16.499-16.5c0-0.869-0.087-1.717-0.217-2.549c4.631-2.922,7.717-8.07,7.717-13.951
		s-3.086-11.029-7.717-13.951c0.13-0.834,0.217-1.68,0.217-2.549c0-9.113-7.388-16.5-16.499-16.5
		C927.692,311.361,923.105,313.708,920.079,317.388z"/>
</g>
<g id="Layer_5" display="none">
	<path display="inline" fill="#FFD540" d="M375.505,448.134l194.982-34.38C501.637,351.523,372.51,422.511,375.505,448.134z"/>
	<path display="inline" fill="#FFD540" d="M513.833,167.879l194.982-34.381C639.964,71.268,510.837,142.256,513.833,167.879z"/>
	<path display="inline" fill="#FFD540" d="M364.517,370.627l194.982-34.381C490.648,274.015,361.521,345.003,364.517,370.627z"/>
	<path display="inline" fill="#FFD540" d="M488.042,272.877l194.982-34.381C614.174,176.265,485.047,247.253,488.042,272.877z"/>
	<path display="inline" fill="#FFD540" d="M517.833,387.243l194.982-34.381C643.964,290.631,514.837,361.619,517.833,387.243z"/>
	<path display="inline" fill="#FFD540" d="M690.723,419.648l-191.244-51.243C535.579,453.902,682.609,444.136,690.723,419.648z"/>
	<path display="inline" fill="#FFDF7F" d="M679.398,445.232l-51.244-191.244C713.653,290.088,703.887,437.118,679.398,445.232z"/>
	<path display="inline" fill="#FFDF7F" d="M656.061,285.581l51.244-191.244C621.807,130.437,631.573,277.466,656.061,285.581z"/>
	<path display="inline" fill="#FFDF7F" d="M587.652,406.983l51.244-191.244C553.398,251.839,563.164,398.869,587.652,406.983z"/>
	<path display="inline" fill="#FFDF7F" d="M415.65,423.557l51.244-191.244C381.396,268.413,391.163,415.442,415.65,423.557z"/>
	<path display="inline" fill="#FFDF7F" d="M594.873,441.498L432.69,327.936C437.371,420.625,578.874,461.734,594.873,441.498z"/>
	<path display="inline" fill="#FFD540" d="M712.763,227.878l-194.981-34.381C586.631,131.266,715.758,202.254,712.763,227.878z"/>
	<path display="inline" fill="#FFD540" d="M569.083,173.623L406.899,287.185C411.58,194.497,553.082,153.387,569.083,173.623z"/>
	<path display="inline" fill="#FFDF7F" d="M516.645,311.361l51.244-191.244C482.391,156.217,492.157,303.247,516.645,311.361z"/>
	<path display="inline" fill="#FFD540" d="M661.664,257.106L499.479,370.668C504.16,277.98,645.662,236.87,661.664,257.106z"/>
	<path display="inline" fill="#FFD540" d="M688.66,186.013l-34.38,194.982C736.307,337.582,713.764,191.964,688.66,186.013z"/>
	<path display="inline" fill="#FFD540" d="M547.063,332.987l162.185,113.561C704.567,353.861,563.064,312.751,547.063,332.987z"/>
	<path display="inline" fill="#FFD540" d="M624.167,173.623L461.982,287.185C466.662,194.497,608.165,153.387,624.167,173.623z"/>
	<path display="inline" fill="#FFD540" d="M458.292,268.188l-83.675,179.44C332.327,365.018,434.316,258.664,458.292,268.188z"/>
	<path display="inline" fill="#FFDF7F" d="M564.103,406.983L512.858,215.74C598.356,251.839,588.59,398.869,564.103,406.983z"/>
</g>
<g id="Layer_6" display="none">
	<g display="inline">
		<path fill="#A56610" d="M792.397,528.5l-73.613-73.613C706.435,492.13,756.803,534.748,792.397,528.5z"/>
		<path fill="#A56610" d="M725.664,449.67l73.613,73.613C805.527,487.688,762.908,437.319,725.664,449.67z"/>
	</g>
	<g display="inline">
		<path fill="#875201" d="M973.46,529.105l66.918-79.748C1002.199,440.3,964.133,494.191,973.46,529.105z"/>
		<path fill="#875201" d="M1046.174,455.755l-66.918,79.75C1015.262,538.629,1061.723,491.781,1046.174,455.755z"/>
	</g>
	<g display="inline">
		<path fill="#875201" d="M826.053,532.81l66.917-79.749C854.792,444.005,816.725,497.895,826.053,532.81z"/>
		<path fill="#875201" d="M898.767,459.46l-66.917,79.749C867.854,542.332,914.316,495.486,898.767,459.46z"/>
	</g>
	<g display="inline">
		<path fill="#B57015" d="M733.725,793.269l66.917-79.748C762.464,704.464,724.397,758.354,733.725,793.269z"/>
		<path fill="#B57015" d="M806.438,719.919l-66.918,79.749C775.525,802.792,821.988,755.944,806.438,719.919z"/>
	</g>
	<g display="inline">
		<path fill="#965C09" d="M792.397,792.663l-73.613-73.613C706.435,756.293,756.803,798.912,792.397,792.663z"/>
		<path fill="#965C09" d="M725.664,713.833l73.613,73.613C805.527,751.851,762.908,701.482,725.664,713.833z"/>
	</g>
	<g display="inline">
		<path fill="#B57015" d="M1020.161,585.24l-73.613-73.612C934.199,548.87,984.567,591.49,1020.161,585.24z"/>
		<path fill="#B57015" d="M953.429,506.41l73.614,73.613C1033.291,544.429,990.673,494.06,953.429,506.41z"/>
	</g>
	<g display="inline">
		<path fill="#B57015" d="M821.611,763.81l66.918-79.748C850.352,675.005,812.285,728.896,821.611,763.81z"/>
		<path fill="#B57015" d="M894.326,690.46l-66.918,79.749C863.412,773.333,909.875,726.485,894.326,690.46z"/>
	</g>
	<g display="inline">
		<path fill="#965C09" d="M725.591,676.504l66.918-79.748C754.331,587.699,716.265,641.59,725.591,676.504z"/>
		<path fill="#965C09" d="M798.306,603.154l-66.918,79.749C767.392,686.027,813.854,639.18,798.306,603.154z"/>
	</g>
	<g display="inline">
		<path fill="#B57015" d="M942.864,550.834l-18.076-102.523C893.31,471.734,910.124,535.535,942.864,550.834z"/>
		<path fill="#B57015" d="M933.416,447.982l18.077,102.523C977.029,524.934,971.007,459.229,933.416,447.982z"/>
	</g>
	<g display="inline">
		<path fill="#B57015" d="M842.694,673.229l66.918-79.748C871.435,584.425,833.368,638.315,842.694,673.229z"/>
		<path fill="#B57015" d="M915.409,599.88l-66.918,79.749C884.495,682.753,930.958,635.905,915.409,599.88z"/>
	</g>
	<g display="inline">
		<path fill="#B57015" d="M924.971,698.679l66.918-79.748C953.711,609.874,915.645,663.765,924.971,698.679z"/>
		<path fill="#B57015" d="M997.686,625.329l-66.918,79.749C966.771,708.202,1013.234,661.354,997.686,625.329z"/>
	</g>
	<g display="inline">
		<path fill="#A56610" d="M715.045,580.222l102.523-18.076C794.145,530.667,730.344,547.481,715.045,580.222z"/>
		<path fill="#A56610" d="M817.896,570.774l-102.523,18.076C740.945,614.388,806.65,608.364,817.896,570.774z"/>
	</g>
	<g display="inline">
		<path fill="#A56610" d="M763.687,727.93L745.61,625.406C714.132,648.83,730.946,712.631,763.687,727.93z"/>
		<path fill="#A56610" d="M754.238,625.078l18.077,102.523C797.852,702.029,791.829,636.324,754.238,625.078z"/>
	</g>
	<g display="inline">
		<path fill="#B57015" d="M775.982,629.818l102.523-18.076C855.082,580.264,791.281,597.078,775.982,629.818z"/>
		<path fill="#B57015" d="M878.834,620.37l-102.523,18.077C801.883,663.983,867.588,657.961,878.834,620.37z"/>
	</g>
	<g display="inline">
		<path fill="#875201" d="M907.201,741.886l-18.076-102.523C857.646,662.786,874.461,726.587,907.201,741.886z"/>
		<path fill="#875201" d="M897.753,639.034l18.077,102.523C941.366,715.985,935.344,650.28,897.753,639.034z"/>
	</g>
	<g display="inline">
		<path fill="#B57015" d="M997.238,637.28l-18.076-102.523C947.684,558.181,964.498,621.981,997.238,637.28z"/>
		<path fill="#B57015" d="M987.789,534.429l18.078,102.523C1031.402,611.38,1025.381,545.675,987.789,534.429z"/>
	</g>
	<g display="inline">
		<path fill="#B57015" d="M791.764,626.135l-18.076-102.523C742.209,547.035,759.023,610.836,791.764,626.135z"/>
		<path fill="#B57015" d="M782.315,523.283l18.077,102.523C825.929,600.234,819.906,534.529,782.315,523.283z"/>
	</g>
	<g display="inline">
		<path fill="#A56610" d="M885.23,614.479l-18.076-102.523C835.676,535.38,852.49,599.181,885.23,614.479z"/>
		<path fill="#A56610" d="M875.782,511.628l18.077,102.523C919.396,588.579,913.373,522.874,875.782,511.628z"/>
	</g>
	<g display="inline">
		<path fill="#BF7618" d="M764.464,489.712l102.523-18.076C843.563,440.157,779.763,456.972,764.464,489.712z"/>
		<path fill="#BF7618" d="M867.315,480.263l-102.523,18.078C790.364,523.876,856.069,517.854,867.315,480.263z"/>
	</g>
	<g display="inline">
		<path fill="#A56610" d="M764.3,710.575l102.523-18.076C843.399,661.021,779.599,677.835,764.3,710.575z"/>
		<path fill="#A56610" d="M867.151,701.126l-102.523,18.078C790.2,744.739,855.905,738.718,867.151,701.126z"/>
	</g>
	<g display="inline">
		<path fill="#875201" d="M879.341,550.747l102.523-18.076C958.44,501.192,894.64,518.007,879.341,550.747z"/>
		<path fill="#875201" d="M982.192,541.3l-102.523,18.076C905.241,584.913,970.946,578.89,982.192,541.3z"/>
	</g>
	<g display="inline">
		<path fill="#BF7618" d="M797.064,573.909l102.523-18.076C876.164,524.354,812.363,541.169,797.064,573.909z"/>
		<path fill="#BF7618" d="M899.916,564.462l-102.523,18.076C822.965,608.075,888.67,602.052,899.916,564.462z"/>
	</g>
	<g display="inline">
		<path fill="#B57015" d="M886.09,609.696l102.523-18.076C965.189,560.142,901.389,576.956,886.09,609.696z"/>
		<path fill="#B57015" d="M988.941,600.249l-102.523,18.076C911.99,643.862,977.695,637.839,988.941,600.249z"/>
	</g>
	<g display="inline">
		<path fill="#965C09" d="M906.291,481.513l102.523-18.076C985.391,431.958,921.59,448.772,906.291,481.513z"/>
		<path fill="#965C09" d="M1009.143,472.065l-102.523,18.076C932.191,515.679,997.896,509.655,1009.143,472.065z"/>
	</g>
	<g display="inline">
		<path fill="#965C09" d="M740.926,580.54l18.076-102.523C790.48,501.44,773.666,565.241,740.926,580.54z"/>
		<path fill="#965C09" d="M750.374,477.688l-18.077,102.523C706.761,554.64,712.783,488.935,750.374,477.688z"/>
	</g>
	<g display="inline">
		<path fill="#A56610" d="M1022.308,580.376l18.076-102.523C1071.862,501.276,1055.048,565.077,1022.308,580.376z"/>
		<path fill="#A56610" d="M1031.756,477.524l-18.077,102.523C988.143,554.476,994.165,488.771,1031.756,477.524z"/>
	</g>
	<g display="inline">
		<path fill="#BF7618" d="M810.705,716.704l18.076-102.523C860.26,637.604,843.445,701.405,810.705,716.704z"/>
		<path fill="#BF7618" d="M820.153,613.853l-18.077,102.523C776.54,690.804,782.563,625.099,820.153,613.853z"/>
	</g>
	<g display="inline">
		<path fill="#BF7618" d="M740.926,684.276l18.076-102.523C790.48,605.177,773.666,668.978,740.926,684.276z"/>
		<path fill="#BF7618" d="M750.374,581.425l-18.077,102.523C706.761,658.376,712.783,592.671,750.374,581.425z"/>
	</g>
	<g display="inline">
		<path fill="#875201" d="M893.434,662.025l90.157-52.053C950.813,588.406,896.61,626.025,893.434,662.025z"/>
		<path fill="#875201" d="M986.85,617.969l-90.157,52.053C929.457,685.271,989.14,657.141,986.85,617.969z"/>
	</g>
</g>
<g id="Layer_7" display="none">
	<path display="inline" fill="#FFFAEE" d="M714.834,446.63c-1.106,0.584-2.187,1.185-3.271,1.785
		c0.417-0.764,0.842-1.517,1.251-2.292l-58.714,1.285c0.231-0.431,0.471-0.85,0.701-1.285L523.254,449
		c-17.288,48.84-0.645,72.988,27.249,74.503c-6.061,58.213,25.224,94.489,90.234,87.68c8.208,18.554,31.571,26.89,71.22,12.855
		l2.878-131.548c-0.343,0.182-0.674,0.371-1.016,0.554L714.834,446.63z"/>
	<path display="inline" fill="#FFFFFF" d="M713.086,446.372c-0.788,0.416-1.56,0.845-2.332,1.272
		c0.298-0.545,0.601-1.082,0.892-1.635l-41.869,0.916c0.165-0.308,0.336-0.606,0.499-0.916l-93.809,2.053
		c-12.328,34.828-0.46,52.049,19.432,53.129c-4.322,41.513,17.987,67.382,64.348,62.526c5.853,13.23,22.514,19.175,50.788,9.167
		l2.052-93.809c-0.245,0.129-0.48,0.265-0.724,0.395L713.086,446.372z"/>
</g>
<g id="Layer_8">
	<path fill="none" stroke="#000000" stroke-miterlimit="10" d="M712.814,447.122"/>
	<g>
		<path fill="#FDC357" d="M713.814,447.122h368.95c0-203.766-165.185-368.95-368.95-368.95s-368.95,165.185-368.95,368.95
			s165.185,368.95,368.95,368.95V447.122z"/>
	</g>
	
		<ellipse transform="matrix(0.7071 -0.7071 0.7071 0.7071 -81.2931 565.7271)" fill="#FBB040" cx="642.267" cy="380.996" rx="8.25" ry="79.683"/>
	
		<ellipse transform="matrix(0.7071 0.7071 -0.7071 0.7071 499.6901 -441.1125)" fill="#FBB040" cx="782.315" cy="382.623" rx="8.25" ry="79.682"/>
	
		<ellipse transform="matrix(0.7071 0.7071 -0.7071 0.7071 554.4008 -309.1165)" fill="#FBB040" cx="650.315" cy="514.623" rx="8.25" ry="79.682"/>
</g>
</svg>
